<svg version="1.2" xmlns="http://www.w3.org/2000/svg" viewBox="0 0 67 70" width="67" height="70"><style>.a{fill:#e51d2e;stroke:#ec1e24}</style><path fill-rule="evenodd" class="a" d="m23.9 39.6c-5.9-3.6-9.6-8.6-10.4-15.5-0.7-6 1-11.4 5-15.9 8-9.1 21.8-9.3 30.1-0.5 4.5 4.8 6.3 10.6 5.3 17.1-1 6.6-4.6 11.4-10.2 14.8 0.7 0.3 1.4 0.5 2.1 0.8 7.3 3 12.9 7.9 16.8 14.8 1.9 3.5 3.1 7.2 3.6 11.2 0.2 1.1-0.6 2.1-1.8 2.2-0.9 0.2-1.9-0.6-2-1.7-0.5-3.2-1.5-6.2-3-9.1-3.6-7.1-9.2-12-16.6-14.8q-5.2-1.8-10.8-1.5c-6.1 0.5-11.5 2.7-16.2 6.7q-8 6.6-10.3 16.8c-0.2 0.7-0.3 1.3-0.4 2-0.2 1-1.1 1.7-1.9 1.7-1.1-0.2-2-1-1.9-2.1 0.1-1.3 0.3-2.6 0.7-3.8 3.1-11.3 10.3-18.8 21.2-23q0.3-0.1 0.7-0.2zm9.9-34.9c-1.5 0-3 0.2-4.5 0.6-4.6 1.5-8.1 4.3-10.4 8.5-1.9 3.3-2.5 6.8-1.9 10.6 0.7 3.8 2.6 6.9 5.5 9.4 3.9 3.3 8.4 4.7 13.4 4.1 4.6-0.6 8.4-2.7 11.3-6.4 2.7-3.3 3.9-7.2 3.4-11.5-0.3-3.1-1.5-5.9-3.3-8.3-3.4-4.4-7.9-6.8-13.5-7z"/></svg>