<svg version="1.2" xmlns="http://www.w3.org/2000/svg" viewBox="0 0 75 75" width="75" height="75"><style>.a{fill:#e51d2e}</style><path fill-rule="evenodd" class="a" d="m71.9 75c-0.6-0.5-1.2-0.9-1.8-1.4q-9-8.9-18-17.7c-0.2-0.2-0.4-0.5-0.6-0.8-1.2 0.9-2.4 1.7-3.5 2.4q-5.8 3.5-12.4 4.3c-6.6 0.9-12.9-0.2-18.8-3.3-9-4.8-14.7-12.2-16.4-22.4-1.5-8.8 0.5-16.8 6-23.9 5-6.5 11.7-10.5 19.8-11.8 7-1.2 13.7-0.2 19.9 3.1 8.7 4.5 14.4 11.6 16.3 21.3 2 9.8-0.4 18.6-6.8 26.3q-0.3 0.3-0.5 0.6c0 0-0.1 0-0.1 0.2q0.2 0.2 0.5 0.5 8.9 8.7 17.8 17.6c0.6 0.6 1.1 1.3 1.7 1.9q0 0.7 0 1.3-0.6 1.2-1.8 1.8-0.6 0-1.3 0zm-13.7-44.2c0-0.9-0.1-2-0.2-3-0.5-4.3-2-8.2-4.5-11.7q-6.5-9-17.5-11c-3.4-0.6-6.9-0.5-10.3 0.3q-4.8 1-8.9 3.6c-3.8 2.6-6.9 5.8-9 9.9q-3.3 6.4-2.9 13.6 0.2 4.7 2.1 8.9c2.3 5.3 6 9.4 11.1 12.3 5.9 3.4 12.2 4.3 18.8 3 4.9-0.9 9.3-3.2 13-6.6 5.4-5.2 8.2-11.6 8.3-19.3z"/></svg>