<svg version="1.2" xmlns="http://www.w3.org/2000/svg" viewBox="0 0 76 76" width="76" height="76"><style>.a{fill:#e51d2e}.b{fill:none;stroke:#e51d2e;stroke-width:3}</style><path class="a" d="m39 47q-1.3 0-2.6 0-0.1 0-0.2 0c-0.2 0-0.3 0-0.3-0.2q-0.1-0.9 0-1.8 0-1.2 0.2-2.4 0.5-2.1 1.9-3.8c1-1.1 2.1-2 3.2-3 1-0.8 1.9-1.5 2.8-2.4q0.9-0.9 1.1-2.1 0.4-2-0.8-3.5c-0.9-1.1-2-1.7-3.4-2q-1.7-0.3-3.3 0.1-2.5 0.7-3.8 3c-0.4 0.7-0.7 1.6-0.9 2.4q0 0.1-0.1 0.2 0 0.1-0.2 0.1-0.4 0-0.9-0.1-1.3-0.2-2.6-0.3-1.2-0.2-2.3-0.3c-0.2 0-0.2-0.1-0.2-0.3q0.3-3.5 2.7-6.1 2.1-2.4 5.2-3.3 1.4-0.5 2.9-0.6 0.8-0.1 1.6-0.1c0.6 0 1.3 0 1.9 0.1q1.2 0.1 2.4 0.4c3 0.7 5.5 2.3 7.2 5q1.1 1.7 1.3 3.6c0.3 2.5-0.5 4.6-2.1 6.4-1.1 1.4-2.5 2.6-3.8 3.7-0.7 0.6-1.4 1.2-2.1 1.8q-0.5 0.6-1 1.2c-0.4 0.6-0.5 1.3-0.6 2-0.1 0.6-0.1 1.2-0.1 1.8q0 0.1 0 0.2c0 0.3 0 0.3-0.3 0.3q-0.9 0-1.7 0-0.6 0-1.1 0z"/><path class="a" d="m39.3 49.3q1.5 0 3 0 0.1 0 0.2 0 0.2 0 0.2 0.2 0 0.1 0 0.2 0 3 0 6 0 0 0 0c0 0.4 0 0.4-0.4 0.4q-2.7 0-5.5 0-0.3 0-0.6 0c-0.2 0-0.3 0-0.3-0.3q0-0.1 0-0.2 0-2.9 0-5.8c0-0.5 0-0.5 0.5-0.5q1.5 0 2.9 0z"/><path class="b" d="m38.1 74.2c-19.9 0-36-16.1-36-36 0-19.9 16.1-35.9 36-35.9 19.9 0 36 16 36 35.9 0 19.9-16.1 36-36 36z"/></svg>