<svg version="1.2" xmlns="http://www.w3.org/2000/svg" viewBox="0 0 70 70" width="70" height="70"><style>.a{fill:#e51d2e;stroke:#ec1e24}</style><path fill-rule="evenodd" class="a" d="m34.7 68.4q-11.9-13.2-23.7-26.3c-1.8-2-3.7-3.8-5.3-5.9-5.1-6.5-6.3-14-3.5-22 2.6-7.6 8-11.9 15.4-13 6.8-1 12.5 1.5 17.3 7 0.5-0.5 1-0.9 1.5-1.4 5.7-6.1 14.7-7.6 22.1-3.7 7 3.6 11.1 11.8 10.6 20.5-0.4 5.1-2 9.6-5.3 13.2-9.2 10.2-18.6 20.3-27.9 30.5-0.2 0.3-0.6 0.6-1.2 1.1zm0.1-4.4c0.6-0.6 1-0.9 1.4-1.4 8.5-9.2 16.9-18.4 25.3-27.7 6.7-7.4 6.7-18.4 0.1-25.7-6.6-7.2-16.6-7.2-23.5 0.1-1 1-1.8 2.3-3.1 3.9-1.3-1.6-2.1-2.9-3.1-4-4.3-4.5-9.4-6.4-15.3-4.9-6.4 1.6-10.6 6-12.5 12.9-1.9 6.9-0.1 12.9 4.4 17.9 6.4 7.1 12.9 14 19.3 21.1 2.3 2.5 4.7 5.1 7 7.8z"/></svg>