<svg version="1.2" xmlns="http://www.w3.org/2000/svg" viewBox="0 0 62 62" width="62" height="62"><style>.a{fill:#e51d2e}</style><path fill-rule="evenodd" class="a" d="m29.9 0.2q0.9 0 1.9 0c3.2 0.9 5.1 3.2 6.6 6 2 3.7 3 7.8 3.4 12 0.1 0.8 0.4 1.2 1.3 1.1 1.5 0 3.1 0 4.7 0q3 0 5.9 0c0.5 2.5 1 4.9 1.4 7.2q2.3 13.1 4.7 26.2c0.5 2.7 1.1 5.3 1.6 8 0 0.2 0 0.5-0.1 0.5-0.3 0.1-0.6 0.1-1 0.1q-29.5 0-59-0.1c-0.3 0-1.1 0.6-1-0.5 0 0 0.1-0.1 0.1-0.2q2.8-15.2 5.6-30.4c0.6-3.6 1.3-7.1 1.9-10.8 0.6 0 1.1 0 1.6 0 3 0 6 0 9 0 0.9 0 1.3-0.1 1.4-1.1 0.4-3.8 1.2-7.6 2.9-11.1 1.5-3.1 3.5-5.8 7.1-6.9zm26.9 57.2c0-0.3 0-0.4 0-0.6-2-10.9-4-21.8-6-32.7-0.2-1-0.7-1.1-1.5-1.1q-18.5 0.1-36.9 0c-1.1 0-1.4 0.3-1.6 1.3-1.5 8.8-3.2 17.6-4.8 26.4-0.4 2.2-0.8 4.4-1.2 6.7 17.4 0 34.6 0 52 0zm-18.7-38.2c-0.2-1.4-0.4-2.7-0.6-4-0.7-3.1-1.5-6-3.3-8.7-2.2-3.3-4.6-3.3-6.7 0-1.1 1.8-1.9 3.8-2.5 5.8-0.7 2.2-1.1 4.5-1.6 6.9 5.1 0 9.8 0 14.7 0z"/></svg>